%
M48
M72
T01C0.00800
T02C0.01000
T03C0.01181
T04C0.02362
T05C0.02500
T06C0.03150
T07C0.03600
T08C0.04700
T09C0.05000
T10C0.05512
T11C0.12598
%
T01
X326733Y118383
X326733Y121733
X326733Y127883
X326733Y130933
X326733Y137283
X326733Y140433
X326733Y146783
X326733Y149933
X326733Y156283
X326733Y159383
X326733Y165833
X326733Y168833
X326733Y175083
X326633Y178333
X363433Y178283
X363433Y175133
X363433Y168783
X363433Y165683
X363433Y159333
X363433Y156133
X363433Y149933
X363433Y146733
X363433Y140433
X363433Y137283
X363398Y130983
X363398Y127933
X363433Y121533
X363433Y118333
X363333Y197033
X363333Y200283
X363433Y216033
X363433Y219183
X363433Y225533
X363433Y228633
X363433Y234933
X363433Y238133
X363433Y244333
X363433Y247533
X364233Y253733
X364233Y256933
X326783Y253883
X325433Y258208
X325233Y247333
X326733Y238183
X326733Y235033
X341133Y228672
X341133Y225594
X326733Y219233
X326733Y216083
X326733Y209783
X326683Y206633
X326733Y200283
X326733Y197133
X477283Y222133
X482333Y217133
X487133Y217133
X492083Y217133
X492283Y222133
X497133Y222083
X497033Y227233
X487083Y227233
X482333Y227333
X482033Y232233
X482233Y237133
X487333Y222183
X502083Y217233
X507083Y217283
X507533Y222083
X511933Y222233
X517433Y216933
X522033Y216883
X522433Y212483
X522433Y207483
X522483Y201783
X526583Y202083
X527083Y197133
X522133Y196983
X517133Y196933
X512133Y196883
X512333Y201433
X507183Y201533
X507133Y196883
X502233Y196983
X497133Y202083
X492183Y202083
X492233Y196983
X487233Y196983
X487033Y207333
X491833Y207333
X491833Y211733
X497133Y212033
X502133Y206633
X507133Y207733
X507183Y212133
X512333Y212133
X522033Y222183
X527183Y222158
X527333Y216833
X527483Y212433
X532233Y217033
X537033Y217183
X536933Y222033
X542133Y222133
X541983Y217183
X542333Y212183
X537383Y211983
X537233Y207333
X532133Y207283
X532233Y202233
X537183Y201833
X537233Y196933
X532133Y196933
X542383Y197083
X542433Y201883
X547233Y196933
X552033Y196933
X551983Y201883
X552083Y206983
X552133Y212083
X552133Y217033
X547133Y217033
X547533Y221983
X551883Y222033
X557283Y221683
X557283Y227333
X562133Y227233
X567083Y222233
X571933Y222183
X576983Y222033
X577033Y226933
X572233Y227333
X567433Y232583
X572133Y236933
X577083Y236933
X587133Y232133
X587133Y227683
X592233Y227333
X597233Y232133
X602183Y232583
X607133Y232333
X607133Y227083
X602333Y227283
X602183Y222133
X597083Y221983
X597283Y216933
X597333Y211933
X601983Y211933
X602033Y207283
X597033Y206933
X592233Y206933
X587183Y211583
X581783Y211683
X581833Y206933
X577333Y206933
X582033Y201983
X581683Y197083
X576833Y196933
X572333Y201533
X567083Y201283
X567035Y197233
X562333Y197233
X557133Y201733
X562133Y207033
X567133Y207033
X567133Y211733
X567283Y216633
X562133Y217133
X562033Y212033
X557133Y212033
X572133Y211733
X577233Y217133
X581933Y217133
X582133Y222583
X587183Y222083
X592233Y217233
X607133Y216983
X612133Y216733
X612133Y212133
X617283Y212183
X622433Y217133
X626883Y217133
X627083Y222133
X632133Y222033
X637133Y222333
X637133Y226983
X632083Y227233
X627133Y232283
X621633Y232283
X622133Y227083
X617433Y227133
X616933Y222133
X612483Y222133
X627133Y212133
X632133Y212133
X632333Y216933
X637133Y216833
X642383Y217083
X642209Y212109
X647233Y212183
X652233Y217133
X657283Y217133
X662283Y222283
X666583Y222183
X671433Y226933
X672083Y217133
X646933Y222283
X642233Y222433
X642133Y231933
X647033Y232133
X646783Y242533
X643133Y242633
X627133Y242783
X622033Y242733
X597233Y241933
X547383Y231983
X547233Y227333
X542133Y227233
X542333Y232283
X607133Y206533
X612233Y206533
X612133Y202333
X617133Y202233
X617183Y197133
X612233Y197133
X607133Y197083
X602033Y202133
X596983Y201933
X597083Y197083
X592233Y197233
X587233Y201983
X622233Y206733
X627033Y206933
X627133Y202133
X632233Y202133
X632133Y197133
X627233Y196983
X622233Y196983
X637083Y197483
X642183Y197483
X642183Y201933
X642183Y207033
X637033Y206933
X647333Y201933
X652233Y197333
X657033Y197333
X661833Y201733
X667033Y201733
X631033Y178033
X629033Y176083
X752833Y135533
X752833Y132733
X759733Y131033
X759733Y127833
X759733Y121583
X759733Y118433
X782033Y118333
X782033Y121583
X782033Y127933
X782033Y131133
X782033Y137333
X781933Y140533
X796433Y146709
X796433Y150007
X796433Y156233
X796433Y159433
X796433Y165683
X796433Y168783
X796433Y175133
X796433Y178333
X759733Y178283
X759733Y175233
X759733Y168933
X759733Y165733
X759733Y159333
X759733Y156133
X759733Y149933
X759733Y146783
X759733Y197183
X759733Y200333
X759733Y206633
X759733Y209783
X759733Y216133
X759733Y219183
X760083Y225583
X760033Y228683
X759733Y234983
X759733Y238133
X732633Y240733
X796466Y238107
X796466Y234959
X796498Y228683
X796548Y225533
X796683Y219183
X796583Y215883
X796633Y209733
X796633Y206533
X796433Y200333
X796433Y197083
X796633Y244483
X796633Y247533
X796633Y253733
X796633Y256933
X796433Y275933
X796433Y279083
X796433Y285333
X796433Y288483
X796448Y294783
X796433Y297933
X796483Y304183
X796483Y307383
X759733Y307383
X759733Y304333
X759733Y297933
X759733Y294883
X760083Y288533
X760083Y285333
X760083Y279133
X760083Y275933
X713433Y295733
X720633Y303333
X725933Y308983
X720183Y311133
X708733Y311383
X703033Y316133
X698233Y316083
X696133Y311333
X686683Y303933
X686633Y301333
X677833Y288533
X667433Y279133
X664233Y279133
X660633Y279133
X657833Y279133
X655033Y279133
X651833Y279133
X648233Y279133
X645433Y279133
X642633Y279133
X639433Y279133
X635833Y279133
X633033Y279133
X630233Y279133
X627033Y279133
X623433Y279133
X620233Y279133
X595033Y275733
X591833Y275733
X588633Y275733
X585433Y275733
X585033Y269333
X588633Y269333
X591833Y269333
X595033Y269333
X662033Y242533
X666833Y242733
X685433Y274133
X667033Y308133
X667433Y314133
X664233Y318233
X669183Y320283
X676133Y321433
X679433Y327333
X683033Y327333
X672233Y327333
X686633Y318933
X696233Y321733
X698233Y324133
X707983Y317133
X758183Y313683
X759433Y318533
X759883Y322933
X758233Y329108
X705638Y345333
X697863Y361303
X700263Y368963
X704633Y375733
X648033Y368433
X629033Y382133
X619533Y381333
X619433Y353733
X616633Y353733
X613633Y353733
X610433Y353733
X622433Y353733
X616933Y344833
X622922Y332691
X610233Y332133
X604633Y332133
X598283Y337283
X602233Y320583
X605233Y320583
X609433Y320583
X612633Y320583
X615233Y318933
X615233Y316133
X612183Y311583
X609433Y311633
X605433Y311633
X602683Y311683
X624633Y315333
X510233Y301333
X507033Y301333
X503833Y301333
X500633Y301333
X416433Y310983
X411383Y313533
X413833Y316133
X411383Y318683
X413583Y321133
X411383Y323783
X413333Y326333
X411633Y328833
X413433Y331333
X379583Y331483
X378133Y328933
X379559Y326408
X378633Y323833
X379833Y321333
X378633Y318533
X379833Y316133
X389833Y313333
X363433Y307383
X363433Y304233
X363433Y297933
X363433Y294683
X363433Y288533
X363433Y285333
X363433Y279033
X363433Y275933
X373833Y275533
X377033Y278133
X341133Y279133
X341133Y275933
X341333Y285433
X341333Y288333
X326733Y294733
X326733Y297933
X341133Y304333
X341183Y307433
X326633Y313333
X364158Y323158
X355383Y351783
X496933Y390633
X525433Y386933
X459033Y261733
T02
X428733Y245933
X418933Y241533
X415833Y245933
X461433Y223933
X458433Y221933
X457433Y217933
X457433Y213933
X459533Y211633
X462733Y209633
X467533Y209633
X471633Y212133
X477333Y212233
X482033Y207333
X487283Y211683
X497133Y207033
X502183Y202183
X497033Y196183
X487333Y202183
X482083Y196883
X477183Y202233
X502133Y212033
X497083Y217383
X502133Y222233
X492233Y227283
X497183Y232283
X502483Y237133
X507233Y236933
X512233Y232483
X517533Y232333
X522233Y236883
X527033Y236983
X532433Y232233
X537033Y232133
X537033Y227133
X532533Y222083
X517383Y222233
X512283Y217133
X517333Y212183
X517233Y207183
X512283Y207033
X517233Y202083
X527033Y207033
X532233Y212233
X542433Y207133
X546633Y207133
X547133Y212133
X557083Y216883
X562333Y221983
X566933Y227133
X562183Y232083
X557133Y231933
X551733Y232133
X552083Y227433
X571733Y232233
X577233Y231883
X582183Y227183
X592083Y222083
X587233Y217233
X592233Y212133
X587033Y207033
X592433Y202233
X587283Y197533
X576833Y201933
X572183Y206933
X577283Y212133
X572083Y216933
X557033Y207133
X562233Y202133
X557233Y197083
X547383Y201733
X572233Y196833
X602083Y196983
X607183Y201983
X617233Y206933
X622233Y202183
X632333Y207133
X637133Y211983
X647033Y217233
X652283Y222083
X656983Y222133
X662383Y217233
X667233Y217233
X671833Y222033
X673283Y224283
X675933Y221933
X679433Y221433
X682433Y221933
X684933Y223933
X686433Y226433
X686933Y229433
X686433Y232433
X684933Y234933
X682433Y236433
X679433Y236933
X676433Y236433
X673933Y234933
X672183Y232033
X667133Y227233
X662383Y227133
X656983Y232433
X651483Y231483
X647033Y227033
X642183Y227083
X637083Y232133
X632083Y232183
X627133Y237283
X622233Y237333
X617333Y242633
X611983Y242183
X607183Y237033
X602183Y237033
X592233Y232183
X587283Y236983
X582133Y236933
X577233Y242133
X571783Y242133
X567333Y237033
X562183Y237333
X557233Y242733
X551933Y242733
X547283Y237183
X542083Y237133
X537083Y242133
X532433Y242133
X517133Y242133
X512033Y242133
X497383Y242283
X491933Y242133
X487183Y236783
X487033Y232183
X477233Y232233
X465433Y224633
X470233Y222833
X477233Y242133
X413233Y275833
X388833Y275833
X348883Y282083
X345733Y279033
X344533Y283933
X341333Y282083
X348083Y272683
X342033Y272383
X345033Y259133
X341333Y250733
X344983Y243733
X341333Y241333
X348733Y241233
X363483Y241333
X326783Y241283
X315433Y238933
X305433Y233933
X295433Y228933
X305433Y223933
X315433Y228933
X325383Y222433
X315433Y218933
X305433Y213933
X295433Y208933
X305433Y203933
X295433Y198933
X305433Y193933
X295433Y188933
X305433Y183933
X295433Y178933
X305433Y173933
X315433Y168933
X305433Y163933
X312933Y156433
X317933Y151433
X320283Y147333
X341183Y143333
X344933Y143633
X348933Y144033
X348883Y152983
X345033Y156333
X341183Y152983
X341183Y162583
X345033Y164733
X348733Y162583
X348833Y171833
X341183Y171983
X344983Y179983
X341783Y180933
X315433Y178933
X315433Y188933
X315433Y198933
X326883Y203433
X315433Y208933
X326683Y212883
X341333Y212933
X345083Y210658
X344794Y203358
X341333Y203333
X348333Y203383
X344933Y195033
X295433Y218933
X277933Y218933
X277933Y213933
X277933Y208933
X277933Y203933
X277933Y198933
X277933Y193933
X277933Y188933
X277933Y183933
X277933Y178933
X277933Y173933
X277933Y168933
X277933Y163933
X277933Y158933
X277933Y153933
X277933Y148933
X277933Y143933
X277933Y138933
X277933Y133933
X277933Y128933
X277933Y123933
X277933Y118933
X277933Y113933
X277933Y108933
X295433Y118933
X285233Y122633
X295433Y128933
X298833Y134733
X302633Y130733
X306633Y129733
X312033Y128933
X317883Y128933
X323333Y130033
X341333Y134033
X345233Y129733
X348783Y134083
X348883Y124683
X341183Y124733
X349633Y113333
X348433Y110533
X348433Y107333
X349633Y104933
X351433Y102933
X354433Y102333
X357433Y102533
X359833Y103733
X361433Y106133
X362233Y109733
X361033Y112733
X358633Y115133
X355433Y115533
X352233Y115133
X340433Y108933
X330433Y108933
X320433Y108933
X310433Y108933
X315433Y98933
X325433Y98933
X335433Y98933
X345433Y98933
X365433Y98933
X375433Y98933
X385433Y98933
X395433Y98933
X405433Y98933
X415433Y98933
X425433Y98933
X435433Y98933
X445433Y98933
X455433Y98933
X465433Y98933
X475433Y98933
X485433Y98933
X495433Y98933
X505433Y98933
X515433Y98933
X525433Y98933
X535433Y98933
X545433Y98933
X555433Y98933
X565433Y98933
X565433Y91433
X560433Y91433
X555433Y91433
X550433Y91433
X545433Y91433
X540433Y91433
X535433Y91433
X530433Y91433
X525433Y91433
X520433Y91433
X515433Y91433
X510433Y91433
X505433Y91433
X500433Y91433
X495433Y91433
X490433Y91433
X485433Y91433
X480433Y91433
X475433Y91433
X470433Y91433
X465433Y91433
X460433Y91433
X455433Y91433
X450433Y91433
X445433Y91433
X440433Y91433
X435433Y91433
X430433Y91433
X425433Y91433
X420433Y91433
X415433Y91433
X410433Y91433
X405433Y91433
X400433Y91433
X395433Y91433
X390433Y91433
X385433Y91433
X380433Y91433
X375433Y91433
X370433Y91433
X365433Y91433
X360433Y91433
X355433Y91433
X350433Y91433
X345433Y91433
X340433Y91433
X335433Y91433
X330433Y91433
X325433Y91433
X320433Y91433
X315433Y91433
X310433Y91433
X315433Y118933
X305433Y123933
X320083Y138933
X304633Y145733
X301233Y142133
X295433Y148933
X295433Y158933
X408233Y153633
X423233Y153633
X420433Y108933
X410433Y108933
X400433Y108933
X390433Y108933
X380433Y108933
X430433Y108933
X440433Y108933
X450433Y108933
X460433Y108933
X470433Y108933
X480433Y108933
X490433Y108933
X500433Y108933
X510433Y108933
X520433Y108933
X530433Y108933
X540433Y108933
X555433Y113933
X560433Y108933
X540433Y118933
X530433Y123933
X540433Y128933
X555433Y133933
X545433Y138933
X555433Y143933
X560433Y153933
X560433Y123933
X570433Y91433
X575433Y91433
X580433Y91433
X585433Y91433
X590433Y91433
X595433Y91433
X600433Y91433
X605433Y91433
X610433Y91433
X615433Y91433
X620433Y91433
X625433Y91433
X630433Y91433
X635433Y91433
X640433Y91433
X645433Y91433
X650433Y91433
X655433Y91433
X660433Y91433
X665433Y91433
X670433Y91433
X675433Y91433
X680433Y91433
X685433Y91433
X690433Y91433
X695433Y91433
X700433Y91433
X705433Y91433
X710433Y91433
X715433Y91433
X720433Y91433
X725433Y91433
X730433Y91433
X735433Y91433
X740433Y91433
X745433Y91433
X750433Y91433
X755433Y91433
X760433Y91433
X765433Y91433
X770433Y91433
X775433Y91433
X780433Y91433
X785433Y91433
X790433Y91433
X795433Y91433
X800433Y91433
X798433Y97333
X787433Y101933
X783433Y102933
X780433Y98933
X780433Y106933
X770433Y103933
X760433Y106433
X787433Y115683
X792433Y114933
X795433Y110933
X795433Y106933
X792433Y102933
X820433Y113933
X830433Y113933
X830433Y108933
X830433Y103933
X830433Y98933
X830433Y93933
X830433Y118933
X830433Y123933
X830433Y128933
X830433Y133933
X830433Y138933
X830433Y143933
X830433Y148933
X830433Y153933
X830433Y158933
X830433Y163933
X830433Y168933
X830433Y173933
X830433Y178933
X830433Y183933
X830433Y188933
X830433Y193933
X830433Y198933
X830433Y203933
X830433Y208933
X830433Y213933
X830433Y218933
X815433Y213933
X805433Y213933
X796733Y212933
X796583Y203533
X781883Y203483
X778033Y202233
X774433Y203383
X778133Y196133
X759833Y203483
X774783Y213033
X778083Y210983
X781633Y213083
X777833Y222458
X774533Y222383
X778033Y227633
X774333Y231783
X781833Y231933
X796483Y231883
X805433Y233933
X815433Y233933
X830433Y233933
X830433Y228933
X830433Y223933
X820433Y223933
X810433Y223933
X796333Y241283
X781733Y241333
X777933Y241283
X774733Y241383
X759983Y241283
X757483Y250883
X774783Y250783
X781733Y250833
X781383Y259183
X777933Y259283
X774683Y259283
X798533Y250833
X810433Y243933
X820433Y243933
X830433Y243933
X830433Y238933
X830433Y248933
X830433Y253933
X830433Y258933
X830433Y263933
X830433Y268933
X830433Y273933
X830433Y278933
X830433Y283933
X830433Y288933
X830433Y293933
X830433Y298933
X830433Y303933
X830433Y308933
X830433Y313933
X830433Y318933
X830433Y323933
X830433Y328933
X830433Y333933
X830433Y338933
X830433Y343933
X830433Y348933
X830433Y353933
X830433Y358933
X830433Y363933
X830433Y368933
X815433Y363933
X805433Y358933
X795433Y353933
X791933Y351433
X794433Y349433
X795433Y346433
X794933Y343433
X805433Y348933
X815433Y343933
X815433Y353933
X795433Y363933
X785433Y358933
X788433Y352133
X785433Y351433
X782983Y349733
X781433Y347433
X781433Y344433
X778133Y337883
X781833Y329333
X774233Y329333
X778133Y321533
X781833Y319733
X774233Y320133
X774233Y310533
X781833Y309983
X778033Y303233
X778133Y299933
X781833Y300933
X774233Y300933
X774233Y291733
X778133Y285933
X774433Y282333
X781833Y282283
X781333Y273733
X778133Y273733
X774833Y273683
X782033Y291683
X810433Y283933
X820433Y283933
X815433Y273933
X810433Y263933
X820433Y263933
X815433Y253933
X815433Y293933
X810433Y303933
X820433Y303933
X810483Y313933
X805483Y313933
X800483Y316433
X800833Y319733
X804233Y319433
X808883Y322433
X811833Y318933
X815483Y316433
X817983Y321433
X817983Y326433
X811933Y328583
X808583Y331633
X802983Y331433
X800483Y328933
X797033Y329333
X800483Y323933
X797183Y319833
X759833Y310533
X744183Y311733
X732933Y311383
X730433Y306383
X729533Y321233
X709033Y326783
X707983Y333933
X705483Y336433
X714083Y332433
X721283Y332833
X725433Y338933
X735433Y343933
X745933Y341033
X745383Y336433
X745383Y333933
X759433Y332533
X753933Y341433
X745433Y348933
X735433Y353933
X725433Y348933
X715433Y353933
X725433Y358933
X715433Y363933
X705633Y360833
X705433Y368933
X715433Y373933
X715433Y383933
X715433Y393933
X725433Y398933
X715433Y403933
X711033Y402483
X695433Y398933
X685433Y393933
X675433Y388933
X690433Y383933
X695433Y378933
X692233Y372533
X680433Y373933
X675433Y368933
X670433Y363933
X675433Y358933
X670433Y353933
X662933Y351433
X662933Y346433
X665833Y342133
X668233Y339333
X675833Y332683
X686233Y330133
X696633Y332933
X680433Y343933
X683833Y347333
X683833Y351933
X693883Y349683
X694983Y346133
X697783Y346133
X695883Y352883
X695883Y356883
X687933Y363933
X680433Y363933
X662933Y361433
X662933Y356433
X660433Y366433
X657933Y371433
X656683Y377533
X650933Y381083
X648133Y383733
X645033Y381233
X640633Y383733
X639133Y381283
X635633Y383733
X633133Y381233
X625533Y381433
X622933Y381433
X616983Y381333
X611183Y378783
X610433Y373933
X610433Y368933
X606233Y363933
X606233Y358733
X606883Y354933
X608433Y351633
X608583Y347033
X602533Y343833
X614633Y337233
X614533Y332933
X623833Y336533
X628033Y340733
X624933Y342433
X622783Y345883
X622733Y350633
X615183Y362883
X617433Y368933
X627283Y369133
X636133Y368483
X670433Y373933
X675433Y378933
X695433Y388933
X685433Y403933
X675433Y408933
X675433Y416233
X670433Y416233
X680433Y416233
X685433Y416233
X690433Y416233
X695433Y416233
X700433Y416233
X705433Y416233
X710433Y416233
X715433Y416233
X720433Y416233
X725433Y416233
X730433Y416433
X735433Y416433
X740433Y416433
X745433Y416433
X750433Y416433
X755433Y416433
X760433Y416433
X765433Y416433
X770433Y416433
X775433Y416433
X780433Y416433
X785433Y416433
X790433Y416433
X795433Y416433
X800433Y416433
X785433Y408933
X775433Y403933
X765433Y398933
X755433Y393933
X745433Y398933
X735433Y393933
X735433Y403933
X755433Y403933
X745433Y408933
X765433Y408933
X795433Y403933
X785433Y398933
X775433Y393933
X795433Y393933
X815433Y383933
X830433Y381433
X830433Y376433
X815433Y373933
X830433Y386433
X830433Y391433
X830433Y396433
X830433Y401433
X830433Y406433
X830433Y411433
X830433Y416433
X775433Y363933
X765433Y358933
X755433Y353933
X745433Y358933
X735433Y363933
X755433Y363933
X775433Y353933
X765433Y348933
X678633Y307483
X665433Y303883
X663533Y306183
X660783Y306183
X656983Y311233
X642583Y307133
X628333Y309733
X622433Y313033
X620433Y303933
X617933Y301433
X616333Y299033
X616333Y295833
X610433Y293933
X602933Y293933
X598483Y294033
X594333Y293933
X593333Y297533
X585433Y293933
X580433Y293933
X575433Y293933
X570433Y293933
X565433Y293933
X560433Y298933
X555433Y303933
X555433Y308933
X555433Y313933
X550683Y315783
X550683Y320783
X548183Y325783
X543183Y325783
X538183Y325783
X533183Y325783
X528183Y325783
X523183Y325783
X518183Y325783
X515683Y320783
X517933Y313883
X512933Y313883
X507933Y313883
X502933Y313883
X497933Y313883
X492933Y313883
X492933Y318883
X492933Y323883
X490433Y325883
X485433Y325883
X480433Y325883
X475433Y325883
X470433Y325883
X465433Y325883
X461933Y324883
X460433Y318883
X461383Y311833
X466383Y311833
X466783Y306283
X460233Y305033
X460233Y295033
X462733Y292533
X472733Y292533
X477733Y292533
X482733Y292533
X487733Y292533
X492933Y293883
X492933Y298883
X492883Y305483
X487383Y305883
X515683Y303283
X515683Y298283
X518183Y293283
X523183Y293283
X528183Y293283
X533183Y293283
X538183Y293283
X543183Y293283
X548183Y293283
X549083Y300133
X548383Y305183
X543683Y305933
X543933Y312133
X560633Y320583
X564933Y317533
X564833Y314133
X564933Y311033
X565233Y307633
X580433Y307533
X580433Y312033
X580233Y316833
X588333Y320333
X596233Y327233
X599533Y330433
X600683Y334333
X588533Y335033
X581033Y338133
X577033Y338933
X577033Y343933
X577033Y348933
X577033Y353933
X577033Y358933
X572033Y361433
X556833Y361033
X551833Y361033
X535933Y360783
X531833Y361033
X534333Y373533
X526833Y373533
X519333Y373533
X514333Y373533
X509333Y373533
X504333Y373533
X499333Y373533
X494333Y373533
X489333Y373533
X484333Y373533
X480433Y376433
X477933Y373933
X482933Y378933
X485433Y381433
X487933Y383933
X490433Y386433
X492933Y388933
X541833Y403533
X556833Y403533
X573833Y399333
X590633Y396933
X610433Y398933
X615433Y393933
X620433Y398933
X615433Y403933
X625433Y403933
X630433Y407733
X625433Y408933
X622933Y411433
X620433Y416433
X615433Y416433
X610433Y416433
X605433Y416433
X610433Y408933
X590433Y416433
X585433Y416433
X580433Y416433
X575433Y416433
X570433Y416433
X565433Y416433
X560433Y416433
X555433Y416433
X550433Y416433
X545433Y416433
X540433Y416433
X535433Y416433
X530433Y416433
X525433Y416433
X520433Y416433
X515433Y416433
X510433Y416433
X505433Y416433
X500433Y416433
X495433Y416433
X490383Y416433
X485383Y416433
X480383Y416433
X475383Y416433
X470383Y416433
X465383Y416433
X460383Y416433
X455383Y416433
X450383Y416433
X440383Y416433
X435383Y416433
X430383Y416433
X425383Y416433
X420383Y416433
X415383Y416433
X410383Y416433
X405383Y416433
X400383Y416433
X395383Y416433
X390383Y416433
X385383Y416433
X380383Y416433
X375383Y416433
X370383Y416433
X365383Y416433
X360383Y416433
X355383Y416433
X350383Y416433
X345383Y416433
X340383Y416433
X335383Y416433
X330383Y416433
X325383Y416433
X320383Y416433
X315383Y416433
X310383Y416433
X305383Y416433
X277883Y416433
X277933Y401433
X277933Y396433
X277933Y391433
X277933Y386433
X277933Y381433
X277933Y376433
X277933Y371433
X277933Y366433
X277933Y361433
X277933Y356433
X277933Y351433
X277933Y346433
X277933Y341433
X277933Y336433
X277933Y331433
X277933Y326433
X277933Y321433
X277933Y316433
X277933Y311433
X277933Y306433
X277933Y298933
X277933Y293933
X277933Y288933
X277933Y283933
X277933Y278933
X277933Y273933
X277933Y268933
X277933Y263933
X277933Y258933
X277933Y253933
X277933Y248933
X277933Y243933
X277933Y238933
X277933Y233933
X277933Y228933
X277933Y223933
X295433Y238933
X305433Y243933
X295433Y248933
X305433Y253933
X295433Y258933
X305433Y263933
X295433Y268933
X305433Y273933
X295433Y278933
X305433Y283933
X295433Y288933
X305433Y293933
X295433Y298933
X305433Y303933
X305433Y311433
X312133Y316033
X310133Y319283
X311333Y323883
X311333Y328883
X312933Y331433
X317933Y331433
X320933Y328633
X325433Y328933
X325433Y323933
X325983Y320133
X322933Y316033
X320983Y318983
X318583Y319083
X318583Y322633
X305433Y323933
X295433Y318933
X317933Y315533
X295433Y308933
X315433Y298933
X315433Y288933
X315433Y278933
X315433Y268933
X315433Y258933
X315433Y248933
X326833Y250733
X341383Y222433
X348733Y222333
X363333Y222483
X348983Y291733
X341183Y291633
X341183Y301083
X344933Y303133
X348983Y300933
X344833Y308933
X341383Y311533
X348933Y310533
X348983Y320133
X344694Y322348
X341183Y319983
X341183Y329483
X348933Y329333
X365233Y327533
X364633Y316433
X377983Y303883
X382983Y303883
X392983Y303883
X397983Y303883
X402983Y303883
X407983Y303883
X412983Y303883
X413083Y307583
X419683Y315133
X418933Y333933
X415433Y333933
X422933Y333933
X427933Y333933
X432933Y333933
X437933Y333933
X444583Y334083
X452933Y333883
X460433Y333883
X465433Y333883
X470433Y333883
X475433Y333883
X480433Y336383
X485433Y338883
X490433Y341383
X495433Y343883
X500433Y346383
X504633Y352283
X510433Y353933
X513683Y359483
X497933Y358933
X490433Y353933
X485483Y351033
X480433Y348933
X475683Y346633
X470433Y343933
X465433Y343933
X460433Y343933
X457933Y348933
X452833Y352133
X447883Y352383
X443083Y352483
X438783Y353733
X433083Y349133
X433333Y345533
X428033Y349133
X425933Y345533
X422633Y339333
X412183Y342933
X406983Y345333
X404633Y351333
X401033Y351333
X396233Y353733
X392633Y353733
X389033Y353733
X384433Y353733
X384233Y348933
X384233Y346533
X379433Y353733
X375433Y353933
X370433Y351433
X365433Y346433
X362033Y347133
X362033Y344733
X361433Y342333
X360833Y349533
X358433Y351333
X352433Y351333
X350033Y349533
X348833Y347133
X345433Y348933
X335433Y348933
X325433Y348933
X325433Y343933
X333233Y339333
X343983Y340433
X346233Y340433
X344933Y337533
X373033Y336533
X375833Y340133
X400314Y334049
X417933Y353933
X421233Y352933
X414633Y358033
X414233Y363033
X414233Y368033
X412933Y371433
X409283Y375433
X405433Y376433
X400433Y376433
X395433Y376433
X390433Y376433
X385433Y376433
X380433Y376433
X401233Y371433
X402933Y361433
X360483Y373933
X365483Y383933
X360483Y393933
X370483Y393933
X380483Y393933
X385433Y398933
X385483Y403933
X375483Y403933
X365483Y403933
X382933Y408933
X404633Y402933
X420733Y395033
X391033Y392533
X320433Y383933
X310433Y383933
X300433Y383933
X290433Y383933
X285433Y373933
X295433Y373933
X305433Y373933
X315433Y373933
X310433Y363933
X300433Y363933
X290433Y363933
X295433Y348933
X305433Y343933
X295433Y338933
X305433Y333933
X295433Y328933
X315433Y338933
X315433Y348933
X315433Y393933
X305433Y393933
X295433Y393933
X285433Y393933
X310433Y403933
X320433Y403933
X492933Y333883
X502933Y333883
X512933Y333883
X507933Y323883
X497933Y323883
X523183Y312183
X520683Y305783
X560433Y283933
X570433Y283933
X602783Y299533
X598383Y305633
X580233Y302933
X567483Y320733
X577033Y328933
X577033Y333733
X565433Y334533
X563033Y335933
X560633Y334533
X565833Y339733
X563033Y341333
X560633Y343733
X565633Y343733
X586583Y342633
X594133Y351533
X594683Y358883
X587783Y358883
X541833Y373533
X562233Y376583
X564933Y376583
X567633Y376583
X570333Y376683
X572933Y376683
X575583Y376683
X578333Y376683
X598633Y376083
X605833Y386533
X625433Y393933
X630433Y398933
X635433Y393933
X640433Y398933
X635433Y403933
X645433Y403933
X650433Y398933
X645433Y393933
X655433Y403933
X650433Y408933
X650433Y416433
X645433Y416433
X640433Y411433
X635433Y408933
X655433Y416433
X695433Y408933
X559333Y380183
X556733Y380183
X554133Y380183
X551533Y380183
X548733Y380183
X657233Y337433
X659033Y331033
X659033Y324933
X662783Y324933
X623183Y324233
X623233Y327183
X616783Y324233
X670433Y298883
X672933Y296383
X672933Y288883
X672933Y283883
X670433Y281383
X656483Y277333
X644133Y277433
X631683Y277483
X618433Y277333
X614833Y277933
X610433Y278933
X617933Y283933
X617933Y288933
X621083Y267983
X612933Y263883
X612933Y259683
X612933Y253483
X612933Y248883
X621083Y254383
X633933Y252583
X633933Y247783
X632083Y242683
X637133Y242483
X642483Y236733
X647083Y236733
X650833Y242533
X658033Y242533
X661883Y237183
X667033Y237183
X672033Y243033
X627033Y227133
X622133Y222033
X617033Y217083
X621833Y212183
X607083Y212583
X602483Y216933
X607033Y222033
X612333Y227133
X612283Y232333
X616583Y232283
X597233Y227133
X592233Y242083
X631933Y261933
X633933Y266983
X649533Y266983
X649833Y261333
X658233Y261333
X658333Y266983
X671133Y266983
X671033Y261333
X672133Y211933
X662283Y207183
X656983Y211883
X652333Y211983
X647283Y207233
X652133Y201883
X656983Y201883
X662133Y197033
X667233Y197233
X672133Y202083
X647583Y197183
X637133Y201783
X774833Y180483
X778133Y180533
X781283Y179883
X781833Y172133
X778133Y171733
X774233Y171733
X774233Y162533
X778533Y160933
X781833Y162533
X781833Y152933
X778533Y153333
X774333Y153083
X774333Y143183
X781833Y143733
X778133Y135333
X781833Y134133
X774233Y134133
X774233Y124933
X781833Y124933
X778133Y117033
X797133Y130683
X799933Y130833
X802983Y130833
X803633Y134283
X807483Y133133
X807533Y129183
X812183Y132983
X817533Y135733
X817433Y141133
X808033Y141633
X804183Y138633
X800433Y137583
X797033Y137483
X797033Y134133
X799033Y142933
X799433Y147333
X804233Y152133
X807783Y147233
X812233Y151733
X817033Y147333
X820433Y163933
X810433Y163933
X805433Y173933
X815433Y173933
X810433Y183933
X800433Y183933
X820433Y183933
X815433Y193933
X805433Y193933
X810433Y203933
X820433Y203933
X820433Y123933
X810433Y118933
T03
X649544Y316396
X645607Y316396
X641670Y316396
X637733Y316396
X633796Y316396
X633796Y320333
X633796Y324270
X633796Y328207
X633796Y332144
X637733Y332144
X637733Y328207
X637733Y324270
X637733Y320333
X641670Y320333
X641670Y324270
X641670Y328207
X641670Y332144
X645607Y332144
X645607Y328207
X645607Y324270
X645607Y320333
X649544Y320333
X649544Y324270
X649544Y328207
X649544Y332144
T04
X663714Y389276
X663714Y413292
X598753Y413292
X598753Y389079
T05
X281483Y98933
X284283Y105233
X290433Y108033
X297083Y105233
X299483Y98933
X296833Y92733
X290433Y89633
X284233Y92583
X344983Y112233
X314633Y134533
X314733Y143633
X312533Y148733
X340583Y192983
X350483Y192933
X349383Y261633
X340933Y261633
X394983Y318183
X394983Y332183
X419833Y361733
X419833Y367733
X419633Y373033
X428533Y389733
X434533Y404933
X444633Y415033
X521133Y366933
X526283Y366933
X533183Y340533
X539033Y332533
X547833Y332533
X553483Y340533
X577720Y322333
X584120Y322333
X522933Y332483
X514483Y340533
X596883Y366933
X777933Y341933
X809633Y401983
X815433Y399933
X822433Y403183
X824433Y408933
X822033Y415183
X815433Y417983
X809233Y415183
X806433Y408933
X778033Y265533
X780683Y191033
X775083Y191033
X774683Y112233
X780683Y112133
X806283Y99233
X809083Y105233
X815483Y108033
X821883Y105233
X824283Y99233
X822283Y93233
X815883Y89633
X809483Y92033
X297483Y403233
X290433Y399633
X284683Y402033
X281483Y408933
X284283Y415233
X290433Y418033
X297083Y415233
X299483Y408933
T06
X355194Y345208
X788264Y345208
X788264Y108958
X355194Y108958
T07
X460933Y357433
X460933Y367433
X460933Y377433
T08
X462591Y402433
X482276Y402433
T09
X679205Y229104
X465105Y217104
T10
X631233Y415654
T11
X815433Y408933
X290433Y408933
X290433Y98933
X815433Y98933
M30
